<?xml version="1.0" standalone="no"?>
<!DOCTYPE svg PUBLIC "-//W3C//DTD SVG 20010904//EN"
 "http://www.w3.org/TR/2001/REC-SVG-20010904/DTD/svg10.dtd">
<svg version="1.0" xmlns="http://www.w3.org/2000/svg"
 width="700.000000pt" height="700.000000pt" viewBox="0 0 700.000000 700.000000"
 preserveAspectRatio="xMidYMid meet">
<metadata>
Created by potrace 1.14, written by Peter Selinger 2001-2017
</metadata>
<g transform="translate(0.000000,700.000000) scale(0.100000,-0.100000)"
fill="#000000" stroke="none">
<path d="M2855 6991 c-149 -41 -574 -233 -636 -287 -8 -8 -19 -14 -23 -14 -20
0 -336 -226 -425 -304 -277 -243 -474 -476 -661 -781 -51 -83 -167 -313 -205
-405 -50 -122 -127 -352 -150 -450 -5 -18 -28 -37 -87 -70 -45 -25 -86 -50
-92 -55 -6 -6 -32 -26 -58 -43 -71 -48 -215 -197 -282 -291 -71 -99 -148 -249
-180 -351 -55 -172 -56 -188 -51 -685 3 -253 7 -498 9 -545 5 -112 15 -400 21
-630 9 -340 17 -412 56 -494 31 -67 110 -140 184 -171 115 -48 291 -52 392
-10 31 13 34 12 44 -8 43 -80 149 -164 244 -192 102 -29 210 -22 296 19 l49
23 24 -31 c136 -178 323 -259 458 -197 68 31 94 27 115 -14 6 -11 14 -128 18
-260 9 -331 15 -394 42 -474 34 -101 106 -180 208 -231 189 -95 451 1 543 197
l27 58 -2 363 c-2 199 -2 362 0 362 1 0 49 -16 107 -35 117 -40 359 -101 435
-111 28 -3 53 -8 56 -10 4 -2 38 -7 75 -10 38 -3 72 -8 76 -10 12 -7 212 -18
343 -18 120 0 309 9 380 19 17 2 53 7 80 10 28 4 57 8 65 10 8 1 33 6 55 9 22
4 67 13 101 21 34 8 73 16 85 19 141 26 444 135 637 229 252 122 595 350 671
446 165 208 51 512 -210 560 -50 9 -73 8 -144 -4 -40 -6 -102 -41 -187 -105
-154 -116 -215 -155 -349 -227 -196 -105 -456 -200 -654 -238 -22 -5 -44 -9
-50 -11 -208 -54 -657 -53 -950 1 -223 42 -643 199 -646 242 -2 25 -5 130 -13
413 -4 135 -9 316 -12 402 -2 91 -1 159 5 162 5 3 47 -12 93 -33 45 -22 160
-76 255 -120 248 -117 332 -143 463 -145 94 -1 111 2 160 25 110 53 185 142
222 262 25 85 20 175 -16 246 -34 66 -448 478 -821 817 -16 15 -82 75 -145
134 -129 120 -136 126 -275 254 -54 50 -133 123 -175 162 -155 148 -269 228
-435 309 -152 73 -290 117 -445 141 -19 3 -39 9 -43 14 -16 14 108 277 200
427 194 312 463 586 768 780 157 100 312 175 527 257 143 55 220 132 252 253
42 160 -45 336 -199 404 -52 23 -170 34 -220 20z"/>
<path d="M4804 6959 c-217 -26 -354 -232 -296 -444 16 -58 63 -126 113 -166
48 -38 53 -41 184 -96 646 -271 1138 -796 1374 -1467 32 -89 76 -251 86 -316
3 -19 8 -42 10 -50 5 -19 11 -58 20 -130 12 -97 16 -114 39 -165 104 -228 419
-273 579 -82 98 117 103 177 42 552 -17 109 -99 387 -157 535 -258 658 -735
1217 -1345 1576 -89 53 -325 174 -338 174 -4 0 -31 11 -61 25 -95 43 -181 62
-250 54z"/>
<path d="M6395 3331 c-157 -41 -271 -198 -269 -371 3 -184 146 -331 330 -337
176 -5 309 94 360 267 48 165 -29 341 -185 417 -57 28 -175 40 -236 24z"/>
</g>
</svg>
