<svg width="141.736" height="142.401" viewBox="0 0 37.501 37.677" xmlns="http://www.w3.org/2000/svg">
  <defs>
    <linearGradient id="dismiss-logo-a" x1="104.71" x2="94.151" y1="59.781" y2="77.909" gradientTransform="translate(-78.46 -53.379)" gradientUnits="userSpaceOnUse">
      <stop stop-color="#142cb0" offset="0"/>
      <stop stop-color="#00bcd4" offset="1"/>
    </linearGradient>
  </defs>
  <path d="M25.934.2a1.873 1.873 0 00-1.74 1.206 1.873 1.873 0 001.084 2.418 13.262 13.262 0 018.484 11.064 1.873 1.873 0 002.053 1.676 1.873 1.873 0 001.676-2.053A17.028 17.028 0 0026.61.322 1.873 1.873 0 0025.934.2zm8.781 19.491a1.873 1.873 0 00-1.736 1.213l-.049.125A1.873 1.873 0 0034 23.455a1.873 1.873 0 002.425-1.069c.021-.053.04-.106.06-.16a1.873 1.873 0 00-1.093-2.414 1.873 1.873 0 00-.676-.12zM15.645.002A1.873 1.873 0 0015.13.1 17.028 17.028 0 003.593 14.895c-.535 6.792 3.045 13.26 9.084 16.416s13.392 2.402 18.664-1.914a1.873 1.873 0 00.261-2.637 1.873 1.873 0 00-2.636-.264A13.262 13.262 0 0114.41 27.99a13.26 13.26 0 01-7.082-12.803A13.259 13.259 0 0116.325 3.65a1.873 1.873 0 001.18-2.373 1.873 1.873 0 00-1.86-1.275z" color="#000" fill="url(#dismiss-logo-a)" />
  <path d="M7.393 11.544a8.475 8.475 0 015.79 2.582c2.443 2.282 4.938 4.517 7.272 6.913 1.14 1.28-.14 3.476-1.793 3.283-1.269-.088-2.352-.866-3.51-1.328-.292-.055-.958-.676-.787-.031.105 4.255.263 8.51.314 12.767-.092 1.63-2.26 2.565-3.491 1.483-1.15-.855-.814-2.427-.939-3.663-.065-.715.244-1.925-.81-1.298-1.069.324-1.987-.619-2.488-1.291-1.092.715-2.634.242-3.206-.912-1.164.526-3.067.206-3.423-1.35-.164-.878-.08-1.797-.148-2.692-.069-2.79-.237-5.584-.15-8.374.451-3.274 3.406-5.99 6.725-6.07.214-.01.429-.02.644-.019z"/>
  <path d="M6.14 12.723c-3.006.403-5.398 3.39-5.036 6.422.083 3.14.187 6.28.28 9.42.393.818 1.758.855 2.062-.056.12-.797-.024-1.645.01-2.459-.407-.775.724-1.843 1.036-.777.1 1.418.145 2.84.214 4.26.415 1.023 2.202.799 2.094-.408.03-1.374-.107-2.753-.005-4.122 1.308-1.003 1.035 1.385 1.1 2.141.067 1.12.044 2.26.155 3.368.425 1.215 2.395.644 2.067-.616.023-1.683-.178-3.384-.01-5.056 1.373-.85.912 1.584 1.051 2.337.123 2.91.218 5.82.32 8.73.393.935 1.948.863 2.095-.184-.063-4.67-.291-9.336-.336-14.004.55-1.181 2.05.421 2.938.548 1.028.326 2.106 1.351 3.207.779 1.017-.852-.229-1.843-.871-2.432-2.32-2.195-4.603-4.435-7.016-6.527a7.26 7.26 0 00-5.356-1.364z" fill="#fff"/>
</svg>